<?xml version="1.0" encoding="utf-8"?>
<!-- Generator: Adobe Illustrator 17.1.0, SVG Export Plug-In . SVG Version: 6.00 Build 0)  -->
<!DOCTYPE svg PUBLIC "-//W3C//DTD SVG 1.1//EN" "http://www.w3.org/Graphics/SVG/1.1/DTD/svg11.dtd">
<svg version="1.1" id="Layer_1" xmlns="http://www.w3.org/2000/svg" xmlns:xlink="http://www.w3.org/1999/xlink" x="0px" y="0px"
	 viewBox="0 0 100 100" enable-background="new 0 0 100 100" xml:space="preserve">
<path fill="#FFFFFF" d="M89.1,44.7h-1.9c-0.4-3-1.2-6-2.3-8.7l1.6-0.9c1.3-0.7,1.7-2.3,1-3.6l-2.7-4.6c-0.7-1.3-2.3-1.7-3.6-1
	l-1.6,0.9c-1.9-2.4-4-4.5-6.4-6.4l0.9-1.6c0.7-1.3,0.3-2.9-1-3.6l-4.6-2.7c-1.3-0.7-2.9-0.3-3.6,1L64,15.1c-2.8-1.1-5.7-1.9-8.7-2.3
	v-1.9c0-1.4-1.2-2.6-2.6-2.6h-5.4c-1.4,0-2.6,1.2-2.6,2.6v1.9c-3,0.4-6,1.2-8.7,2.3L35,13.5c-0.7-1.3-2.3-1.7-3.6-1l-4.6,2.7
	c-1.3,0.7-1.7,2.3-1,3.6l0.9,1.6c-2.4,1.9-4.5,4-6.4,6.4l-1.6-0.9c-1.3-0.7-2.9-0.3-3.6,1l-2.7,4.6c-0.7,1.3-0.3,2.9,1,3.6l1.6,0.9
	c-1.1,2.8-1.9,5.7-2.3,8.7h-1.9c-1.4,0-2.6,1.2-2.6,2.6v5.4c0,1.4,1.2,2.6,2.6,2.6h1.9c0.4,3,1.2,6,2.3,8.7L13.5,65
	c-1.3,0.7-1.7,2.3-1,3.6l2.7,4.6c0.7,1.3,2.3,1.7,3.6,1l1.6-0.9c1.9,2.4,4,4.5,6.4,6.4l-0.9,1.6c-0.7,1.3-0.3,2.9,1,3.6l4.6,2.7
	c1.3,0.7,2.9,0.3,3.6-1l0.9-1.6c2.8,1.1,5.7,1.9,8.7,2.3v1.9c0,1.4,1.2,2.6,2.6,2.6h5.4c1.4,0,2.6-1.2,2.6-2.6v-1.9
	c3-0.4,6-1.2,8.7-2.3l0.9,1.6c0.7,1.3,2.3,1.7,3.6,1l4.6-2.7c1.3-0.7,1.7-2.3,1-3.6l-0.9-1.6c2.4-1.9,4.5-4,6.4-6.4l1.6,0.9
	c1.3,0.7,2.9,0.3,3.6-1l2.7-4.6c0.7-1.3,0.3-2.9-1-3.6L84.9,64c1.1-2.8,1.9-5.7,2.3-8.7h1.9c1.4,0,2.6-1.2,2.6-2.6v-5.4
	C91.7,45.9,90.6,44.7,89.1,44.7z M38.6,23.4h22.8c3.7,0,5.6,4.5,2.9,7.1L52.9,41.9c-1.6,1.6-4.3,1.6-5.9,0L35.7,30.6
	C33.1,27.9,34.9,23.4,38.6,23.4z M30.6,64.3c-2.6,2.6-7.1,0.8-7.1-2.9V38.6c0-3.7,4.5-5.6,7.1-2.9L42,47c1.6,1.6,1.6,4.3,0,5.9
	L30.6,64.3z M61.4,76.5H38.6c-3.7,0-5.6-4.5-2.9-7.1L47.1,58c1.6-1.6,4.3-1.6,5.9,0l11.4,11.4C66.9,72,65.1,76.5,61.4,76.5z
	 M76.5,61.3c0,3.7-4.5,5.6-7.1,2.9L58,52.9c-1.6-1.6-1.6-4.3,0-5.9l11.4-11.4c2.6-2.6,7.1-0.8,7.1,2.9V61.3z"/>
</svg>
